PathFileType	4	(X/Y/Z)	C:/Users/opensim2020/Desktop/walking_exp_matlab/subject06_walking11_run.trc																																																																																																																																								
DataRate	CameraRate	NumFrames	NumMarkers	Units	OrigDataRate	OrigDataStartFrame	OrigNumFrames																																																																																																																																				
100	100	6	46	mm	100	252	106																																																																																																																																				
Frame#	Time	LKNE			RKNE			RFRM			RWRA			RWRB			RELB			RUPA			RSHO			LWRA			RFIN			RFHD			CLAV			RASI			RTHI			LSHO			LTHI			RBHD			C7			LTIB			LANK			LTOE			LBHD			RTIB			RBAK			LHEE			RANK			STRN			RHEE			RTOE			T10			LUPA			LFHD			LPSI			RPSI			LASI			LFRM			LWRB			LFIN			LELB			*39			*40			*41			*42			*43			*44			*45		
		X1	Y1	Z1	X2	Y2	Z2	X3	Y3	Z3	X4	Y4	Z4	X5	Y5	Z5	X6	Y6	Z6	X7	Y7	Z7	X8	Y8	Z8	X9	Y9	Z9	X10	Y10	Z10	X11	Y11	Z11	X12	Y12	Z12	X13	Y13	Z13	X14	Y14	Z14	X15	Y15	Z15	X16	Y16	Z16	X17	Y17	Z17	X18	Y18	Z18	X19	Y19	Z19	X20	Y20	Z20	X21	Y21	Z21	X22	Y22	Z22	X23	Y23	Z23	X24	Y24	Z24	X25	Y25	Z25	X26	Y26	Z26	X27	Y27	Z27	X28	Y28	Z28	X29	Y29	Z29	X30	Y30	Z30	X31	Y31	Z31	X32	Y32	Z32	X33	Y33	Z33	X34	Y34	Z34	X35	Y35	Z35	X36	Y36	Z36	X37	Y37	Z37	X38	Y38	Z38	X39	Y39	Z39	X40	Y40	Z40	X41	Y41	Z41	X42	Y42	Z42	X43	Y43	Z43	X44	Y44	Z44	X45	Y45	Z45	X46	Y46	Z46
																																																																																																																																											
67	0.66	99.21087	525.51141	-515.53448	348.20483	629.06323	-907.83453	467.88577	1227.078	-573.35071	405.51083	1208.7417	-700.30933	444.35056	1157.30261	-685.03137	473.78461	1298.68408	-501.46301	426.63916	1376.09717	-566.33154	339.44003	1451.49658	-720.96472	75.86212	1260.15027	-872.87561	432.2926	1162.25562	-767.46991	275.10617	1674.5885	-811.59949	210.76634	1392.86938	-806.36035	321.42847	994.78833	-764.19751	379.9888	728.84338	-833.47925	49.41095	1436.17578	-783.88098	66.48318	677.04523	-584.18793	256.0603	1613.34241	-686.17719	178.09419	1473.82166	-705.18951	106.77631	348.48584	-327.90002	142.50468	225.88881	-211.60251	196.65211	79.00503	-210.97728	127.4493	1618.32764	-701.23834	326.63956	362.83459	-914.01703	229.72198	1332.12512	-605.82306	180.09596	263.67911	-186.80539	267.13931	180.68475	-913.04523	219.67722	1212.3158	-829.64648	220.43912	167.21123	-872.71643	252.07372	119.43278	-1060.50574	187.52687	1164.0509	-627.50836	-60.34502	1270.7843	-777.96729	144.19386	1685.23071	-827.27356	128.13744	1025.03052	-623.62073	292.36737	1039.27087	-623.96655	113.0658	962.80652	-765.34045	-11.68455	1169.84534	-853.11591	91.22865	1197.11316	-900.57214	141.70064	1260.15442	-940.90723	-105.1127	1172.55054	-765.67395	NaN	NaN	NaN	189.522	1714.72827	-717.47192	NaN	NaN	NaN	NaN	NaN	NaN	NaN	NaN	NaN	NaN	NaN	NaN	NaN	NaN	NaN
68	0.67	97.51231	529.9646	-555.35919	346.51993	625.76575	-942.78131	465.37808	1231.44983	-610.97546	403.95847	1214.91272	-738.82098	442.15549	1162.97925	-723.72046	471.79886	1302.0144	-538.32391	425.43063	1379.80383	-604.61884	339.90463	1455.24036	-759.92908	75.84595	1268.05396	-911.99164	430.33966	1168.38831	-806.36017	276.27887	1678.92261	-850.37244	211.18755	1397.36536	-845.05267	321.53647	998.63446	-804.54877	379.59662	726.2854	-868.57147	50.20572	1441.85754	-822.12231	65.50618	680.83508	-625.53552	257.27771	1617.57275	-725.03729	178.938	1477.69885	-743.23474	104.47261	358.9122	-362.77563	140.58824	243.25002	-238.07021	189.66748	94.27386	-239.14183	128.68396	1622.8385	-739.98737	323.62817	359.92542	-961.33197	229.30908	1336.45605	-645.07617	179.32645	279.43134	-213.60539	262.84106	178.90865	-976.13593	219.5273	1216.95557	-869.3783	215.53087	166.71309	-937.42188	247.12952	119.18841	-1125.95825	187.20654	1169.42957	-667.97589	-59.9661	1276.64685	-817.25269	145.34317	1689.79077	-865.86719	125.78898	1029.8158	-666.104	290.46106	1042.10669	-664.4762	112.49278	967.13458	-806.7616	-10.53445	1176.37769	-893.0824	92.86048	1205.17468	-939.08002	142.94331	1269.01685	-978.48132	-104.75444	1177.42688	-805.95752	NaN	NaN	NaN	190.76411	1719.12329	-756.10095	NaN	NaN	NaN	NaN	NaN	NaN	NaN	NaN	NaN	NaN	NaN	NaN	NaN	NaN	NaN
69	0.68	95.92268	532.20135	-598.02295	344.40869	620.20477	-976.03784	463.52533	1233.94629	-649.41595	402.81726	1219.46082	-777.98633	439.79013	1166.57715	-763.07385	470.53464	1303.46301	-575.8974	425.03683	1381.59985	-642.67114	340.58475	1457.94336	-798.56873	75.58013	1274.29077	-951.04382	428.47107	1172.95496	-846.00543	277.6554	1682.60938	-889.46936	211.53699	1401.05005	-883.80273	321.50989	1000.71588	-844.48627	379.34772	721.54071	-903.79669	50.55707	1446.35974	-860.50537	64.51415	682.49689	-668.66772	258.49997	1621.08923	-763.83002	179.66757	1480.9812	-781.68243	102.69823	370.09067	-396.54538	138.23102	258.60327	-267.71829	183.86896	108.77237	-270.00986	129.83679	1626.58093	-778.39148	320.51379	356.03949	-1006.81738	229.48792	1339.12488	-684.42004	177.2377	294.21539	-242.39156	259.59363	177.81537	-1035.66724	218.60158	1220.09473	-908.88263	211.83583	166.88022	-998.23511	242.92976	119.15973	-1187.60791	187.13809	1173.62854	-708.276	-60.08184	1281.13013	-856.31763	146.36217	1693.77148	-904.40002	124.22542	1033.39929	-707.90576	289.19434	1043.45361	-704.56104	111.96714	970.60272	-848.10248	-9.7048	1181.53418	-932.6944	93.9149	1211.57788	-977.62048	144.18732	1275.9259	-1016.8609	-104.58357	1181.16724	-845.86279	NaN	NaN	NaN	192.05635	1722.86621	-794.62195	NaN	NaN	NaN	NaN	NaN	NaN	NaN	NaN	NaN	NaN	NaN	NaN	NaN	NaN	NaN
70	0.69	94.36179	533.20325	-642.23016	342.15045	612.83215	-1008.4386	462.12964	1234.60718	-688.68872	401.94754	1222.35815	-817.80133	437.96893	1168.78857	-803.29883	469.89273	1303.09131	-614.19196	425.2821	1381.66016	-680.76245	341.31848	1459.73413	-836.9339	75.2718	1278.8739	-990.02728	426.7305	1175.82947	-886.47009	278.37802	1685.30249	-927.93555	211.89812	1403.89673	-922.69659	321.58292	1001.50824	-884.36108	378.66058	714.7226	-938.70624	50.55791	1449.65198	-898.9657	63.6978	682.97522	-713.02637	259.73947	1623.83813	-802.62872	180.53523	1483.8252	-820.45801	100.80534	380.97476	-431.591	135.53526	272.93448	-300.01419	179.0009	122.97697	-301.9285	131.06857	1629.60693	-816.80011	317.21594	351.92734	-1050.43616	229.8952	1340.59521	-723.30481	174.59627	308.67645	-274.67285	256.50128	176.90086	-1090.39941	217.93744	1222.97119	-948.45886	208.68373	166.61534	-1054.07043	239.08627	119.98906	-1244.45227	187.14337	1176.24097	-748.27679	-60.15508	1284.10791	-895.25269	147.42403	1696.83765	-942.80981	123.15215	1035.86157	-748.13745	288.45493	1043.58105	-744.46088	111.52159	973.38977	-889.27209	-9.35274	1185.35193	-971.97522	94.31944	1216.25391	-1016.40051	144.69908	1280.96289	-1055.13184	-104.60703	1183.86487	-885.1687	NaN	NaN	NaN	193.43782	1725.82434	-833.14215	NaN	NaN	NaN	NaN	NaN	NaN	NaN	NaN	NaN	NaN	NaN	NaN	NaN	NaN	NaN
71	0.7	92.69556	533.33057	-687.15723	339.80627	604.64746	-1040.86731	461.09055	1233.44812	-728.85382	401.43381	1223.59619	-858.63818	436.02542	1169.052	-844.40277	469.80951	1301.0293	-653.38208	425.75772	1380.23999	-719.13043	342.14111	1460.60144	-875.27545	74.66986	1281.71411	-1029.10645	425.11612	1177.01025	-927.76605	279.01407	1686.94666	-966.37781	212.15729	1405.83789	-961.50116	321.3551	1001.15918	-924.20459	377.61157	706.60236	-972.99371	50.32535	1451.91711	-937.61414	62.2888	683.19885	-757.54504	261.07205	1625.67798	-841.42181	181.18845	1486.1853	-859.15417	98.84309	390.25998	-470.37241	133.13913	286.9614	-334.26086	174.29477	136.81396	-334.96579	132.50385	1631.9353	-855.16602	314.16559	348.29449	-1091.78601	230.41675	1340.8606	-762.30286	173.03635	322.75339	-309.58719	253.1953	175.7905	-1139.50305	217.36203	1224.94189	-987.95288	205.23781	164.60843	-1104.76636	235.0451	121.84196	-1295.94922	187.05885	1177.21338	-788.0603	-60.2263	1285.81519	-934.0932	148.40973	1699.03796	-981.10339	122.59804	1037.10229	-788.03766	288.20969	1042.87769	-784.03412	110.86991	975.53088	-930.30322	-9.56419	1187.8429	-1010.74237	93.9882	1219.17126	-1055.36462	144.76451	1284.04907	-1093.69971	-104.80307	1185.70093	-923.75916	NaN	NaN	NaN	195.03403	1727.84888	-871.65552	NaN	NaN	NaN	NaN	NaN	NaN	NaN	NaN	NaN	NaN	NaN	NaN	NaN	NaN	NaN
72	0.71	90.79661	532.21307	-733.46729	337.29449	596.95471	-1073.74939	460.44003	1230.53479	-770.14813	400.6615	1222.9364	-899.96606	434.14316	1167.62524	-886.39453	470.13504	1297.25916	-693.56848	426.36688	1377.49524	-758.05176	343.0387	1460.61584	-913.72125	73.97354	1282.8562	-1068.05884	423.50537	1176.52637	-970.00659	280.2886	1688.03711	-1005.56586	212.35568	1406.87744	-1000.2301	320.41705	1000.07257	-963.72321	376.87289	698.39667	-1006.83307	50.16113	1453.07031	-976.31787	60.92725	683.13434	-802.25537	262.54883	1626.479	-880.21661	182.16316	1487.62207	-898.28894	97.2144	398.02722	-511.63812	131.13435	300.39859	-370.69012	169.32407	150.24271	-370.03244	133.87852	1633.07361	-893.17242	311.56448	344.77832	-1130.47461	231.24059	1340.16418	-801.08246	172.10867	336.39868	-346.733	249.91805	173.70944	-1182.9917	216.77303	1226.03003	-1027.26819	202.11705	161.94276	-1148.85352	230.67825	122.85029	-1341.4563	186.75241	1176.6958	-827.46484	-59.97882	1286.42847	-972.30048	149.30164	1700.28882	-1019.26624	122.10689	1036.9856	-826.99927	288.20438	1041.69788	-823.67291	109.78991	977.15955	-971.28094	-10.23254	1188.9884	-1048.95886	93.05241	1220.32751	-1094.40686	144.23407	1285.11194	-1132.6366	-105.03378	1186.72986	-961.41809	NaN	NaN	NaN	196.49001	1728.90405	-909.95044	NaN	NaN	NaN	NaN	NaN	NaN	NaN	NaN	NaN	NaN	NaN	NaN	NaN	NaN	NaN
